<svg width="14" height="14" viewBox="0 0 14 14" fill="none" xmlns="http://www.w3.org/2000/svg">
<path fill-rule="evenodd" clip-rule="evenodd" d="M12.3359 0H1.66413C0.745002 0 0 0.743092 0 1.66031V12.3397C0 13.2565 0.745002 14 1.66413 14H12.3359C13.255 14 14 13.2565 14 12.3397V1.66031C14 0.743092 13.255 0 12.3359 0V0ZM10.0627 2.18727C10.0627 1.94594 10.2586 1.75005 10.4999 1.75005H11.8124C12.0542 1.75005 12.2501 1.94594 12.2501 2.18727V3.5001C12.2501 3.74143 12.0542 3.93732 11.8124 3.93732H10.4999C10.2586 3.93732 10.0627 3.74143 10.0627 3.5001V2.18727V2.18727ZM7.01623 4.33025C8.50318 4.33025 9.7087 5.5331 9.7087 7.01623C9.7087 8.49974 8.50318 9.70221 7.01623 9.70221C5.52966 9.70221 4.32414 8.49974 4.32414 7.01623C4.32414 5.5331 5.52966 4.33025 7.01623 4.33025V4.33025ZM12.6874 12.25C12.6874 12.4913 12.4916 12.6876 12.2498 12.6876H1.75004C1.50833 12.6876 1.31244 12.4913 1.31244 12.25V5.68737H3.06247C2.8345 6.01538 2.75737 6.6275 2.75737 7.01623C2.75737 9.35892 4.66816 11.2651 7.01617 11.2651C9.36456 11.2651 11.2754 9.35892 11.2754 7.01623C11.2754 6.6275 11.22 6.02493 10.9374 5.68737H12.6874V12.25V12.25Z" fill="black" fill-opacity="0.08"/>
</svg>
