<svg width="14" height="12" viewBox="0 0 14 12" fill="none" xmlns="http://www.w3.org/2000/svg">
<path fill-rule="evenodd" clip-rule="evenodd" d="M14 2.12574C13.4849 2.35067 12.9314 2.5027 12.3503 2.57104C12.9433 2.22107 13.3988 1.66701 13.6132 1.00673C13.0582 1.33081 12.4436 1.56603 11.7893 1.69284C11.2654 1.14335 10.5188 0.799988 9.6928 0.799988C8.10653 0.799988 6.82048 2.06591 6.82048 3.62736C6.82048 3.84896 6.84588 4.06476 6.89489 4.2717C4.50774 4.15382 2.39131 3.02813 0.9747 1.31752C0.727443 1.73509 0.585817 2.22073 0.585817 2.73894C0.585817 3.7199 1.09286 4.58536 1.86357 5.0924C1.39272 5.07768 0.949849 4.95053 0.562628 4.73868C0.562351 4.7506 0.562351 4.76239 0.562351 4.77431C0.562351 6.14422 1.55242 7.28695 2.86637 7.5467C2.62534 7.61136 2.37165 7.64598 2.10965 7.64598C1.92462 7.64598 1.74464 7.6282 1.56924 7.59528C1.93479 8.71845 2.99554 9.53601 4.25238 9.55877C3.26937 10.317 2.03094 10.7692 0.685218 10.7692C0.453328 10.7692 0.224691 10.7557 0 10.7295C1.2711 11.5319 2.78088 12 4.40294 12C9.68601 12 12.5751 7.6915 12.5751 3.95519C12.5751 3.83267 12.5723 3.71077 12.5668 3.58941C13.128 3.19078 13.6149 2.69281 14 2.12574" fill="black" fill-opacity="0.08"/>
</svg>
