<svg width="23" height="21" viewBox="0 0 23 21" fill="none" xmlns="http://www.w3.org/2000/svg">
<path d="M22.1016 9.1875L14.375 3.33375C13.9366 3.00169 13.6002 2.625 12.9375 2.625C12.0391 2.625 11.5 3.30225 11.5 3.9375V7.875H1.4375C0.646875 7.875 0 8.46562 0 9.1875V11.8125C0 12.5344 0.646875 13.125 1.4375 13.125H11.5V17.0625C11.5 17.6978 12.0391 18.375 12.9375 18.375C13.6002 18.375 13.9366 17.9983 14.375 17.6663L22.1016 11.8125C22.6521 11.403 23 11.0841 23 10.5C23 9.91594 22.6521 9.59831 22.1016 9.1875Z" fill="#5FBA6E"/>
</svg>
