<svg width="32" height="32" viewBox="0 0 32 32" fill="none" xmlns="http://www.w3.org/2000/svg">
<path d="M15.208 0.175992L0.781342 6.91599C0.683781 6.96073 0.601133 7.03256 0.543236 7.12294C0.485339 7.21331 0.454633 7.31842 0.454773 7.42575C0.454914 7.53308 0.485894 7.63811 0.544027 7.72833C0.602161 7.81856 0.684997 7.89017 0.782675 7.93466L15.3227 14.6253C15.752 14.8227 16.248 14.8227 16.6773 14.6253L31.2173 7.93466C31.3151 7.8903 31.398 7.81879 31.4563 7.72865C31.5145 7.6385 31.5456 7.53351 31.5459 7.42618C31.5462 7.31885 31.5156 7.2137 31.4578 7.12325C31.4001 7.0328 31.3175 6.96086 31.22 6.91599L16.792 0.175992C16.5441 0.0601174 16.2737 6.10352e-05 16 6.10352e-05C15.7263 6.10352e-05 15.456 0.0601174 15.208 0.175992Z" fill="#8C30F5"/>
<path opacity="0.64" d="M31.22 15.568L28.24 14.176C28.0266 14.0763 27.794 14.0243 27.5584 14.0236C27.3229 14.0229 27.09 14.0735 26.876 14.172L16.6773 18.8653C16.4649 18.963 16.2338 19.0136 16 19.0136C15.7662 19.0136 15.5351 18.963 15.3227 18.8653L5.12267 14.172C4.90885 14.0737 4.67621 14.0232 4.4409 14.0239C4.20559 14.0246 3.97324 14.0765 3.76001 14.176L0.780006 15.568C0.682503 15.6128 0.599949 15.6848 0.54217 15.7752C0.48439 15.8657 0.453823 15.9708 0.454103 16.0782C0.454384 16.1855 0.485502 16.2905 0.543754 16.3806C0.602006 16.4708 0.684937 16.5423 0.782674 16.5866L15.3227 23.276C15.535 23.3742 15.7661 23.4251 16 23.4251C16.2339 23.4251 16.465 23.3742 16.6773 23.276L31.2173 16.5866C31.3151 16.5423 31.398 16.4708 31.4563 16.3806C31.5145 16.2905 31.5456 16.1855 31.5459 16.0782C31.5462 15.9708 31.5156 15.8657 31.4578 15.7752C31.4001 15.6848 31.3175 15.6128 31.22 15.568Z" fill="#D6B1FF"/>
<path d="M31.22 24.144L28.24 22.752C28.0266 22.6523 27.794 22.6003 27.5584 22.5996C27.3229 22.5989 27.09 22.6495 26.876 22.748L16.6773 27.44C16.4649 27.5377 16.2338 27.5883 16 27.5883C15.7662 27.5883 15.5351 27.5377 15.3227 27.44L5.12267 22.7467C4.90885 22.6484 4.67621 22.5979 4.4409 22.5985C4.20558 22.5992 3.97324 22.6511 3.76 22.7507L0.780003 24.144C0.682876 24.189 0.600693 24.261 0.543189 24.3513C0.485686 24.4416 0.455272 24.5465 0.455553 24.6535C0.455834 24.7606 0.486798 24.8653 0.544774 24.9553C0.60275 25.0453 0.685309 25.1168 0.782671 25.1613L15.3227 31.852C15.752 32.0493 16.248 32.0493 16.6773 31.852L31.2173 25.1613C31.3147 25.1168 31.3973 25.0453 31.4552 24.9553C31.5132 24.8653 31.5442 24.7606 31.5445 24.6535C31.5447 24.5465 31.5143 24.4416 31.4568 24.3513C31.3993 24.261 31.3171 24.189 31.22 24.144Z" fill="#2EC5CE"/>
</svg>
