<svg width="32" height="32" viewBox="0 0 32 32" fill="none" xmlns="http://www.w3.org/2000/svg">
<path d="M30.6667 8.00004V2.66671C30.6667 2.31309 30.5262 1.97395 30.2761 1.7239C30.0261 1.47385 29.6869 1.33337 29.3333 1.33337H2.66666C2.31304 1.33337 1.9739 1.47385 1.72385 1.7239C1.4738 1.97395 1.33333 2.31309 1.33333 2.66671V8.00004H30.6667Z" fill="#2EC5CE"/>
<path d="M1.33333 10.6667V29.3334C1.33333 29.687 1.4738 30.0262 1.72385 30.2762C1.9739 30.5263 2.31304 30.6667 2.66666 30.6667H9.33333V10.6667H1.33333Z" fill="#D6B1FF"/>
<path d="M12 30.6667H29.3333C29.687 30.6667 30.0261 30.5263 30.2761 30.2762C30.5262 30.0262 30.6667 29.687 30.6667 29.3334V10.6667H12V30.6667Z" fill="#8C30F5"/>
</svg>
